HIERARCHY
ROOT joint_Root
{
	OFFSET 0.0 0.0 0.0
	CHANNELS 6 Xposition Yposition Zposition Zrotation Xrotation Yrotation 
	JOINT Hips
	{
		OFFSET 4.5925 91.4895 -427.239
		CHANNELS 6 Xposition Yposition Zposition Zrotation Xrotation Yrotation 
		JOINT Spine
		{
			OFFSET 15.7357 0.0 0.0
			CHANNELS 6 Xposition Yposition Zposition Zrotation Xrotation Yrotation 
			JOINT Chest
			{
				OFFSET 8.98455 -0.406207 0.0
				CHANNELS 6 Xposition Yposition Zposition Zrotation Xrotation Yrotation 
				JOINT Neck
				{
					OFFSET 16.3773 0.0 0.0
					CHANNELS 6 Xposition Yposition Zposition Zrotation Xrotation Yrotation 
					JOINT Head
					{
						OFFSET 6.45672 0.0 0.0
						CHANNELS 6 Xposition Yposition Zposition Zrotation Xrotation Yrotation 
						End Site
						{
							OFFSET 0.0 0.0 0.0
						}
					}
				}
				JOINT Shoulder_L
				{
					OFFSET 12.9942 -0.242716 4.98039
					CHANNELS 6 Xposition Yposition Zposition Zrotation Xrotation Yrotation 
					JOINT UpperArm_L
					{
						OFFSET 5.34809 0.0 0.0
						CHANNELS 6 Xposition Yposition Zposition Zrotation Xrotation Yrotation 
						JOINT LowerArm_L
						{
							OFFSET 24.3286 1.87007e-05 0.0
							CHANNELS 6 Xposition Yposition Zposition Zrotation Xrotation Yrotation 
							JOINT Hand_L
							{
								OFFSET 22.2916 0.0 0.0
								CHANNELS 6 Xposition Yposition Zposition Zrotation Xrotation Yrotation 
								End Site
								{
									OFFSET 0.0 0.0 0.0
								}
							}
						}
					}
				}
				JOINT Shoulder_R
				{
					OFFSET 12.9945 -0.242716 -4.98039
					CHANNELS 6 Xposition Yposition Zposition Zrotation Xrotation Yrotation 
					JOINT UpperArm_R
					{
						OFFSET -5.34813 0.0 0.0
						CHANNELS 6 Xposition Yposition Zposition Zrotation Xrotation Yrotation 
						JOINT LowerArm_R
						{
							OFFSET -24.3289 0.000322201 0.0
							CHANNELS 6 Xposition Yposition Zposition Zrotation Xrotation Yrotation 
							JOINT Hand_R
							{
								OFFSET -22.2915 -0.000108084 0.0
								CHANNELS 6 Xposition Yposition Zposition Zrotation Xrotation Yrotation 
								End Site
								{
									OFFSET 0.0 0.0 0.0
								}
							}
						}
					}
				}
			}
		}
		JOINT UpperLeg_L
		{
			OFFSET -2.19248 -6.46944 0.0
			CHANNELS 6 Xposition Yposition Zposition Zrotation Xrotation Yrotation 
			JOINT LowerLeg_L
			{
				OFFSET 39.0811 0.0 -1.23785e-05
				CHANNELS 6 Xposition Yposition Zposition Zrotation Xrotation Yrotation 
				JOINT Foot_L
				{
					OFFSET 40.9854 0.0 -1.26872e-05
					CHANNELS 6 Xposition Yposition Zposition Zrotation Xrotation Yrotation 
					JOINT Toes_L
					{
						OFFSET 11.7543 0.0 0.0
						CHANNELS 6 Xposition Yposition Zposition Zrotation Xrotation Yrotation 
						End Site
						{
							OFFSET 0.0 0.0 0.0
						}
					}
				}
			}
		}
		JOINT UpperLeg_R
		{
			OFFSET -2.19251 6.46944 0.0
			CHANNELS 6 Xposition Yposition Zposition Zrotation Xrotation Yrotation 
			JOINT LowerLeg_R
			{
				OFFSET -39.0811 -0.00228153 -0.0401928
				CHANNELS 6 Xposition Yposition Zposition Zrotation Xrotation Yrotation 
				JOINT Foot_R
				{
					OFFSET -40.9854 0.0 0.0
					CHANNELS 6 Xposition Yposition Zposition Zrotation Xrotation Yrotation 
					JOINT Toes_R
					{
						OFFSET -11.7543 0.0 0.0
						CHANNELS 6 Xposition Yposition Zposition Zrotation Xrotation Yrotation 
						End Site
						{
							OFFSET 0.0 0.0 0.0
						}
					}
				}
			}
		}
	}
}
MOTION
Frames:	4
Frame Time:	0.0333333
0.000000 0.000000 0.000000 0.000000 0.000000 -0.000000 -1.823160 91.532300 0.354394 88.856700 1.454780 7.590890 15.735700 0.000005 -0.000001 80.140900 87.233800 -80.604100 8.984550 -0.406207 -0.000000 -2.318890 -0.906263 -0.944661 16.377300 -0.000001 -0.000001 0.503981 -2.929500 0.732213 6.456720 -0.000001 -0.000000 5.711400 -3.871630 4.914280 12.994200 -0.242716 4.980390 -85.425700 -9.503820 -64.147200 5.348090 -0.000007 -0.000001 -36.973300 -57.079800 -56.362900 24.328600 0.000019 0.000005 2.803320 4.671470 -31.016900 22.291600 -0.000001 0.000005 15.892900 4.840750 10.550400 12.994500 -0.242716 -4.980390 92.358500 -7.264710 -71.962200 -5.348130 -0.000001 -0.000004 -31.648400 -53.335900 -47.759800 -24.328900 0.000322 -0.000009 -8.740020 -17.372500 -27.240100 -22.291500 -0.000108 -0.000004 22.576900 5.152720 3.947880 -2.192480 -6.469440 -0.000000 -173.704000 -10.872900 -0.515334 39.081100 -0.000007 -0.000012 -0.137274 0.273247 26.674200 40.985400 -0.000006 -0.000013 0.100048 8.909190 -68.501100 11.754300 -0.000000 0.000003 -0.000093 -0.000971 -16.614900 -2.192510 6.469440 -0.000001 175.842000 22.677700 -177.681000 -39.081100 -0.002282 -0.040193 -0.047777 0.109310 25.050200 -40.985400 0.000008 0.000006 6.224100 13.549800 -70.227200 -11.754300 -0.000006 -0.000006 -0.001230 -0.018618 -17.330200
0.000000 0.000000 0.000000 0.000000 0.000000 -0.000000 -1.779190 91.535800 0.136788 88.851900 1.513000 7.452190 15.735700 0.000005 -0.000001 81.273700 86.961600 -81.653200 8.984550 -0.406207 -0.000000 -1.762420 -0.890176 -0.772539 16.377300 -0.000001 -0.000001 -0.429988 -2.844250 0.771839 6.456720 -0.000001 -0.000000 4.378500 -3.517040 4.492530 12.994200 -0.242716 4.980390 -86.332400 -8.273680 -65.991800 5.348090 -0.000007 -0.000001 -36.039700 -56.051000 -44.122200 24.328600 0.000019 0.000005 4.288770 7.956810 -28.453400 22.291600 -0.000001 0.000005 12.338400 4.736350 12.518600 12.994500 -0.242716 -4.980390 91.447900 -4.699240 -72.852900 -5.348130 -0.000001 -0.000004 -33.902900 -53.316200 -40.772900 -24.328900 0.000322 -0.000009 -8.892890 -19.352300 -25.275300 -22.291500 -0.000108 -0.000004 20.673500 4.855520 10.226600 -2.192480 -6.469440 -0.000000 -173.801000 -10.866300 -0.904216 39.081100 -0.000007 -0.000012 -0.136100 0.269341 26.807900 40.985400 -0.000006 -0.000013 0.159139 8.917270 -68.403900 11.754300 -0.000000 0.000003 -0.000092 -0.000956 -16.614300 -2.192510 6.469440 -0.000001 175.818000 22.920700 -178.005000 -39.081100 -0.002282 -0.040193 -0.066606 0.149198 25.109000 -40.985400 0.000008 0.000006 5.794870 13.830000 -69.982400 -11.754300 -0.000006 -0.000006 -0.001267 -0.019127 -17.350900
0.000000 0.000000 0.000000 0.000000 0.000000 -0.000000 -1.681150 91.507100 0.094107 88.862000 1.537040 7.419760 15.735700 0.000005 -0.000001 81.133900 86.819400 -81.392500 8.984550 -0.406207 -0.000000 -1.482920 -0.959355 -0.529373 16.377300 -0.000001 -0.000001 -0.755998 -2.613290 0.949981 6.456720 -0.000001 -0.000000 3.802300 -3.218370 4.450430 12.994200 -0.242716 4.980390 -86.951100 -6.765280 -65.669300 5.348090 -0.000007 -0.000001 -40.392800 -55.845800 -42.568900 24.328600 0.000019 0.000005 5.073420 10.383400 -26.227700 22.291600 -0.000001 0.000005 10.535800 4.580700 15.241300 12.994500 -0.242716 -4.980390 91.052600 -3.274780 -72.168000 -5.348130 -0.000001 -0.000004 -39.734600 -54.155000 -41.748300 -24.328900 0.000322 -0.000009 -8.673020 -20.881200 -23.165100 -22.291500 -0.000108 -0.000004 22.264200 4.557030 15.623900 -2.192480 -6.469440 -0.000000 -173.940000 -10.691800 -1.088260 39.081100 -0.000007 -0.000012 -0.134622 0.263887 27.028600 40.985400 -0.000006 -0.000013 0.204176 8.709570 -68.496700 11.754300 -0.000000 0.000003 -0.000089 -0.000927 -16.613200 -2.192510 6.469440 -0.000001 175.615000 23.124500 -178.096000 -39.081100 -0.002282 -0.040193 -0.094640 0.207996 25.217100 -40.985400 0.000008 0.000006 5.125150 14.203900 -69.817600 -11.754300 -0.000006 -0.000006 -0.001218 -0.018459 -17.323800
0.000000 0.000000 0.000000 0.000000 0.000000 -0.000000 -1.605570 91.473100 0.203143 88.824100 1.645320 7.392100 15.735700 0.000005 -0.000001 80.281500 86.857600 -80.466000 8.984550 -0.406207 -0.000000 -1.573090 -1.045650 -0.383317 16.377300 -0.000001 -0.000001 -0.524803 -2.700630 1.101510 6.456720 -0.000001 -0.000000 3.967230 -3.183940 4.600800 12.994200 -0.242716 4.980390 -86.996800 -6.483720 -65.080300 5.348090 -0.000007 -0.000001 -48.846900 -57.396700 -50.065700 24.328600 0.000019 0.000005 5.728030 12.347100 -25.130600 22.291600 -0.000001 0.000005 12.627300 4.431350 17.712200 12.994500 -0.242716 -4.980390 91.120000 -3.344300 -71.473200 -5.348130 -0.000001 -0.000004 -45.952200 -55.567000 -47.765800 -24.328900 0.000322 -0.000009 -7.274960 -19.371000 -21.048000 -22.291500 -0.000108 -0.000004 24.036200 4.443230 17.528700 -2.192480 -6.469440 -0.000000 -174.001000 -10.359400 -1.153330 39.081100 -0.000007 -0.000012 -0.140783 0.273723 27.218200 40.985400 -0.000006 -0.000013 0.212151 8.492070 -68.679500 11.754300 -0.000000 0.000003 -0.000092 -0.000958 -16.614400 -2.192510 6.469440 -0.000001 175.641000 22.801000 -178.099000 -39.081100 -0.002282 -0.040193 -0.105311 0.229781 25.301200 -40.985400 0.000008 0.000006 4.869830 13.863800 -69.868200 -11.754300 -0.000006 -0.000006 -0.001421 -0.021217 -17.435900
